<?xml version="1.0" encoding="utf-8"?>
<!-- Generator: Adobe Illustrator 25.3.1, SVG Export Plug-In . SVG Version: 6.00 Build 0)  -->
<svg version="1.1" id="katman_1" xmlns="http://www.w3.org/2000/svg" xmlns:xlink="http://www.w3.org/1999/xlink" x="0px" y="0px"
	 viewBox="0 0 800 571" style="enable-background:new 0 0 800 571;" xml:space="preserve">
<style type="text/css">
	.st0{clip-path:url(#SVGID_2_);}
	.st1{fill:#E8F2FA;}
	.st2{opacity:0.4;}
	.st3{fill:#D3E4FF;}
	.st4{fill:#A9C2FF;}
	.st5{fill:#6B98F6;}
	.st6{fill:#DCEAFF;}
	.st7{opacity:0.5;fill:#E8F2FA;}
	.st8{fill:#FF912B;}
	.st9{fill:#FFFFFF;}
	.st10{fill:#FFAE73;}
	.st11{fill:#1E3865;}
	.st12{fill:#FF8A3A;}
	.st13{fill:#FFA051;}
	.st14{fill:#F9924F;}
	.st15{fill:#A8CCFF;}
	.st16{fill:#8EB2F3;}
	.st17{fill:#074A92;}
	.st18{fill:#FFA05E;}
	.st19{fill:#0B3563;}
	.st20{fill:#0B4D87;}
	.st21{opacity:0.5;}
	.st22{fill:#ACCEFC;}
	.st23{fill:#73B471;}
	.st24{fill:#9BD399;}
	.st25{fill:#FDDBBA;}
	.st26{fill:#214D9A;}
	.st27{fill:#FF9D5D;}
	.st28{fill:#104995;}
	.st29{fill:#2D3554;}
</style>
<g>
	<defs>
		<rect id="SVGID_1_" x="4.45" y="0.58" width="797.77" height="569.84"/>
	</defs>
	<clipPath id="SVGID_2_">
		<use xlink:href="#SVGID_1_"  style="overflow:visible;"/>
	</clipPath>
	<g class="st0">
		<path class="st1" d="M102.29,519.36c0,0-84.85-89.57-30.81-194.9c54.03-105.33,126.54-52.32,123.07-174.94
			C191.09,26.9,361.39,16.43,415.58,52c54.2,35.57,58.97,58.48,170.88,44.35C698.38,82.22,750.42,186.59,713.64,259
			c-42.96,84.58,86.44,92.78-11.88,260.57L102.29,519.36z"/>
		<g class="st2">
			<path class="st3" d="M688.6,204.52c0,5.42-0.49,10.74-1.43,15.89c-2.25,12.38-7.09,23.85-13.93,33.85
				c-15.89,23.24-42.61,38.49-72.89,38.49c-36.02,0-67-21.58-80.71-52.52c-1.81-4.08-3.32-8.31-4.49-12.69
				c-1.99-7.34-3.04-15.07-3.04-23.03c0-6.44,0.69-12.73,2-18.78c0.01-0.07,0.03-0.14,0.04-0.21c3.67-16.73,12.08-31.67,23.75-43.36
				c3.31-3.32,6.88-6.37,10.69-9.13c1.81-1.32,3.68-2.57,5.6-3.74c13.43-8.26,29.23-13.02,46.16-13.02c2.24,0,4.47,0.08,6.67,0.25
				c3.11,0.23,6.17,0.62,9.17,1.17c12.66,2.29,24.37,7.29,34.53,14.37h0c6.33,4.41,12.05,9.62,17.02,15.49
				c2.61,3.09,5.01,6.35,7.18,9.78c1.35,2.13,2.61,4.33,3.79,6.58c2.81,5.41,5.08,11.16,6.73,17.16
				C687.51,188.54,688.6,196.4,688.6,204.52z"/>
			<g>
				<path class="st4" d="M570.38,165.02c-3.52,5.58,1.47,15.26-9.09,12.62c-10.56-2.64-17.02-3.82-17.61,2.05
					c-0.59,5.87,7.92,5.87,7.92,12.03c0,6.16-3.82,8.2-9.68,5.27c-5.87-2.93-7.56-7.18-14.38-4.54c-6.82,2.64-10.78,0.88-12.32-4.4
					c-0.27-0.93-0.65-1.68-1.1-2.31c0.01-0.07,0.03-0.14,0.04-0.21c3.67-16.73,12.08-31.67,23.75-43.36
					c3.31-3.32,6.88-6.37,10.69-9.13c1.81-1.32,3.68-2.57,5.6-3.74c2.75,0.1,6.04,1.14,8.84,4.61c6.16,7.63,10.27,3.82,8.8,12.62
					c-1.47,8.8,0.88,9.98,5.87,9.68c4.99-0.29,10.86-0.29,11.44,3.52C589.75,163.55,573.9,159.44,570.38,165.02z"/>
				<path class="st4" d="M606.92,217.84c0,0-7.78,2.49-9.83-2.93c-2.05-5.43,0.29-6.6-6.6-8.22c-6.9-1.61-7.48-6.31-11.88-5.72
					c-4.4,0.59-2.2,2.35-7.34,6.16c-5.14,3.81-9.83,2.05-9.68,9.1c0.15,7.04,7.78,8.14,9.32,12.76c1.54,4.62-1.1,6.6,2.2,10.12
					c3.3,3.52,9.46,1.98,6.6,6.82c-2.86,4.84-7.26,8.58-5.06,16.07c2.2,7.48,0.66,7.92,4.4,13.21c3.74,5.28,11,7.04,12.1,3.52
					c1.1-3.52-5.06-8.14-3.08-11.66c1.98-3.52,5.28-1.1,6.6-6.38c1.32-5.28,6.68-5.28,7.12-8.95s-6.46-9.24-3.81-11.59
					c2.64-2.35,7.92,4.26,12.03-1.61c4.11-5.87,1.32-10.56,5.58-16.14C619.83,216.81,609.85,214.61,606.92,217.84z"/>
				<path class="st4" d="M688.6,204.52c0,5.42-0.49,10.74-1.43,15.89c-2.25,12.38-7.09,23.85-13.93,33.85
					c-2.33,0.77-4.71,0.75-7.06-0.19c-11-4.4-2.86-16.29,1.54-22.23c4.4-5.94-6.82-3.3-14.97-8.8c-8.14-5.5,0.88-20.25-7.48-17.83
					c-8.36,2.42-18.49,5.5-23.33-2.64c-4.84-8.14,4.4-9.46,0.22-16.29c-4.18-6.82,2.42-10.78,10.78-11.44
					c8.36-0.66,7.26-6.6,17.61-7.48c10.34-0.88,10.12,12.32,21.57,11.44c11.44-0.88,10.93,1.76,10.93,1.76
					c0.82-0.02,1.62,0.15,2.39,0.5C687.51,188.54,688.6,196.4,688.6,204.52z"/>
				<path class="st4" d="M678.73,163.91c-9.52,4.63-13.34-7.96-21.47-4.18c-8.2,3.82-6.77-3.52-13.22-8.22
					c-6.46-4.69-19.37,3.82-18.78-3.52c0.59-7.33,10.27-5.28,12.32-11.15c2.06-5.87,11.44-4.4,11.44-4.4
					c0.53-0.2,1.1-0.33,1.71-0.39c0,0,0,0,0,0c6.33,4.41,12.05,9.62,17.02,15.49c2.61,3.09,5.01,6.35,7.18,9.78
					C676.3,159.47,677.56,161.66,678.73,163.91z"/>
				<path class="st4" d="M598.55,138.61c0,0,4.99-7.2-2.93-9.32c-7.92-2.12-7.78,0.66-13.94,0c-6.16-0.66-8.58,4.11-3.96,9.32
					c4.62,5.21,8.36,15.2,12.54,9.88C594.45,143.16,593.64,139.12,598.55,138.61z"/>
			</g>
		</g>
		<path class="st4" d="M632.01,191.13V465.8c0,4.81-3.47,8.7-7.75,8.7H227.97c-4.28,0-7.75-3.9-7.75-8.7V191.13
			c0-4.81,3.47-8.7,7.75-8.7h396.29C628.54,182.43,632.01,186.32,632.01,191.13z"/>
		<g>
			<path class="st5" d="M632.01,190.17v20.74H220.23v-20.74c0-4.28,3.47-7.75,7.75-7.75h396.29
				C628.54,182.43,632.01,185.89,632.01,190.17z"/>
			<g>
				<path class="st6" d="M232.82,196.67c0-1.99,1.61-3.61,3.61-3.61c1.99,0,3.61,1.61,3.61,3.61c0,1.99-1.61,3.61-3.61,3.61
					C234.44,200.28,232.82,198.66,232.82,196.67z"/>
				<path class="st6" d="M247.03,196.67c0-1.99,1.61-3.61,3.61-3.61s3.61,1.61,3.61,3.61c0,1.99-1.61,3.61-3.61,3.61
					S247.03,198.66,247.03,196.67z"/>
				<path class="st6" d="M261.6,196.67c0-1.99,1.61-3.61,3.61-3.61s3.61,1.61,3.61,3.61c0,1.99-1.61,3.61-3.61,3.61
					S261.6,198.66,261.6,196.67z"/>
			</g>
		</g>
		<rect x="441.8" y="389" class="st7" width="43.43" height="43.43"/>
		<g>
			<polygon class="st5" points="445.06,427.47 457.89,404.34 467.32,417.2 472.03,412.06 482.01,427.47 			"/>
			<path class="st5" d="M464,401.02c0-1.83,1.49-3.32,3.32-3.32c1.83,0,3.32,1.49,3.32,3.32c0,1.83-1.49,3.32-3.32,3.32
				C465.49,404.34,464,402.85,464,401.02z"/>
		</g>
		<rect x="441.8" y="309.5" class="st7" width="108.29" height="62.77"/>
		<polygon class="st5" points="483.72,324.8 483.72,356.96 508.16,340.88 		"/>
		<path class="st1" d="M599.63,262.77c0,7.08-2.83,13.52-7.39,18.19c-4.56,4.67-10.85,7.56-17.76,7.56H281.44
			c-14.96,0-27.19-11.59-27.19-25.75c0-7.08,3.06-13.52,7.99-18.19c4.93-4.67,11.73-7.56,19.2-7.56h293.04
			C588.31,237.01,599.63,248.6,599.63,262.77z"/>
		<path class="st8" d="M599.63,262.77c0,7.08-2.83,13.52-7.39,18.19c-4.56,4.67-10.85,7.56-17.76,7.56h-53.03v-51.51h53.03
			C588.31,237.01,599.63,248.6,599.63,262.77z"/>
		<g>
			<g>
				<path class="st9" d="M566.07,272.13c-0.65,0-1.31-0.05-1.96-0.15c-3.47-0.52-6.53-2.35-8.61-5.17
					c-4.31-5.82-3.08-14.05,2.74-18.36v0c5.82-4.31,14.05-3.08,18.36,2.74c4.31,5.82,3.08,14.05-2.74,18.36
					C571.56,271.24,568.86,272.13,566.07,272.13z M559.51,250.19c-4.86,3.6-5.89,10.48-2.29,15.33c1.74,2.35,4.3,3.89,7.19,4.32
					c2.89,0.43,5.79-0.29,8.14-2.03c4.86-3.6,5.89-10.48,2.29-15.33C571.25,247.62,564.37,246.59,559.51,250.19L559.51,250.19z"/>
			</g>
			
				<rect x="548.08" y="262.54" transform="matrix(0.5949 0.8038 -0.8038 0.5949 440.6635 -331.4269)" class="st9" width="2.16" height="17.91"/>
			<path class="st9" d="M536.96,280.53L536.96,280.53c-0.63-0.86-0.45-2.07,0.4-2.7l8.48-6.28c0.86-0.63,2.07-0.45,2.7,0.4l0,0
				c0.63,0.86,0.45,2.07-0.4,2.7l-8.48,6.28C538.8,281.56,537.59,281.38,536.96,280.53z"/>
		</g>
		<g>
			<g>
				<path class="st10" d="M340.92,227.27c-0.55,0.63-0.62,1.34-0.35,2.1c0,0,0,0.01,0.01,0.01c0.51,1.4,2.18,2.96,4.12,4.52
					c0.25,0.2,0.47,0.38,0.66,0.55c0.05,0.04,0.1,0.09,0.15,0.13c0.04,0.03,0.08,0.07,0.11,0.1c1.81,1.67,1.13,2.05,4.38,5.44
					c3.71,3.86,6.26,3.93,6.99,3.58c0.61-0.3-0.63-2.35-2.02-4.65c-0.07-0.11-0.13-0.22-0.2-0.34c-0.18-0.31-0.37-0.62-0.55-0.92
					c-1.62-2.77-1.2-4.07-0.82-8.19c0.31-3.35,5.22-18.71,5.22-18.71l-7.11-1.23c0,0-2.15,12.23-4.51,14.11
					c-1.26,1-2.67,1.02-3.89,1.76c-0.09,0.05-0.17,0.1-0.25,0.16C342.18,226.17,341.47,226.64,340.92,227.27z"/>
				<path class="st11" d="M340.92,227.27c-0.55,0.63-0.62,1.34-0.35,2.1c0,0,0,0.01,0.01,0.01c0.62,1.4,2.25,2.95,4.13,4.51
					c0.25,0.2,0.46,0.39,0.65,0.57c0.05,0.04,0.1,0.09,0.15,0.13c0.04,0.03,0.08,0.07,0.11,0.1c1.81,1.67,1.13,2.05,4.38,5.44
					c3.71,3.86,6.26,3.93,6.99,3.58c0.61-0.3-0.63-2.35-2.02-4.65c-0.72-0.26-4.08-1.63-6.61-4.88c-2.15-2.75-3.61-6.25-5.08-8.4
					c-0.16-0.03-0.26-0.05-0.42-0.08C342.18,226.17,341.47,226.64,340.92,227.27z"/>
				<path class="st10" d="M398.25,222.85c0.44,2.19,3.57,1.83,7.06,0.98c3.5-0.85,2.66,0.16,7.64-0.39c4.97-0.55,6.48-2.4,6.63-3.14
					c0.14-0.66-2.32-0.89-4.96-1.19c-0.33-0.04-0.66-0.08-1-0.12c-2.98-0.37-5.16-2.3-7.86-3.87c-2.56-1.49-6.38-7.58-6.38-7.58
					l-6.82,0.54c0,0,3.58,5.44,4.96,7.8c0.81,1.39,0.77,3.23,0.67,4.65C398.14,221.29,398.09,222.08,398.25,222.85z"/>
				<path class="st11" d="M405.31,223.83c3.5-0.85,2.66,0.16,7.64-0.39c4.97-0.55,6.48-2.4,6.63-3.14c0.14-0.66-2.32-0.89-4.96-1.19
					l-0.02,0.05c0,0-2.98,2.11-7.12,2.21c-3.37,0.08-6.95-0.89-9.28-0.85c-0.05,0.77-0.1,1.56,0.05,2.33
					C398.69,225.05,401.82,224.68,405.31,223.83z"/>
				<path class="st12" d="M372.12,179.23l-6.38,17.16l-8.33,22.4c0,0-2.26,0.22-4.42-0.41c-1.99-0.58-4.28-2.08-4.28-2.08
					s2.32-24.06,6.64-37.86c1.11-3.54,2.35-6.41,3.71-8.02C365.74,162.51,372.12,179.23,372.12,179.23z"/>
				<path class="st13" d="M365.65,151.97c-3.63-1.17-13.1-0.02-23.37,1.83c-2.84,0.51-5.7-0.78-7.19-3.25h0l-25.85-2.03
					c0,0-8.54,18.92-3.87,30.97c0.69,1.77,2.19,2.88,4.52,2.92c0,0,0,0,0,0c0,0,15.62,0.03,20.62,0.03c12.86,0,27.21-8.83,29.07-9.2
					c3.04-0.61,4.25,5.47,7.29,11.86c3.04,6.38,28.56,28.27,28.56,28.27s3.92,0.04,5.54-0.57c1.74-0.65,2.38-1.5,2.38-1.5
					S375.07,155.01,365.65,151.97z"/>
				<path class="st11" d="M332.36,74.63c-1.92-1.14-3.79-1.32-4.94-1.29c-0.8,0.02-1.59-0.03-2.38-0.15
					c-9.87-1.45-15.81,12.88-16.16,17.21c-0.64,7.95-4.85,9.16-10.77,14.14c-11.87,9.98-8.4,21.58-1.91,25.9
					c3.89,2.59,10.76,0,10.76,0c0.1,0.07,18.78-10.43,27.99-15.5C348.74,112.99,337.9,77.94,332.36,74.63z"/>
				<path class="st10" d="M327.22,110.63c0.04,0.03-4.53,1.58-7.59,0.23c-2.87-1.27-5.05-6-5.01-6c1.31-0.06,2.74-1.2,3.85-8.71
					l0.56,0.2l9.36,3.37c0,0-0.68,3-1.12,5.86C326.91,107.99,326.71,110.29,327.22,110.63z"/>
				<path class="st14" d="M328.4,99.72c0,0-0.37,1.62-0.92,4.65c-5.38-0.97-7.69-5.11-8.44-8.02L328.4,99.72z"/>
				<path class="st10" d="M329.8,102.71c0,0-12.81-1.72-11.61-9.69c1.2-7.96,0.35-13.55,8.58-12.78c8.23,0.76,9.36,4.04,9.61,6.79
					C336.61,89.79,333.16,102.95,329.8,102.71z"/>
				<path class="st11" d="M335.9,82.67c0,0-8.2,7.06-13.78,7.63c-5.58,0.57-7.69-1.22-7.69-1.22s3.29-2.73,5.27-7.13
					c0.58-1.3,1.82-2.19,3.23-2.31C326.92,79.29,334.47,79.14,335.9,82.67z"/>
				<path class="st11" d="M330.77,82.04c0,0,2.74,2.65,3.61,4.62c0.83,1.9,1.08,6.44,0.42,8.24c0,0,4.28-8.31,1.86-12.35
					C334.09,78.27,330.77,82.04,330.77,82.04z"/>
				<path class="st15" d="M338.01,129.51c-0.4,25.93-0.11,20.51-2.95,22.97c-0.68,0.59-2.61,0.94-5.13,1.11
					c-7.95,0.53-21.93-0.79-22.46-2.26c-1.83-5.09-0.54-6.66-2.06-14.45c-0.16-0.83-0.36-1.72-0.59-2.7
					c-1.27-5.35-2.52-7.17,2.01-15.75c4.11-7.78,8.37-14.09,8.76-13.87c10.83,6.43,11.7,1.03,11.7,1.03S338.2,116.86,338.01,129.51z
					"/>
				<path class="st13" d="M365.74,196.38l-8.33,22.4c0,0-2.26,0.22-4.42-0.41c-1.99-0.58-4.28-2.08-4.28-2.08s2.32-24.06,6.64-37.86
					L365.74,196.38z"/>
				<path class="st15" d="M327.28,105.59c0,0,11.14,1.89,12.45,6.69c1.31,4.8,5.6,33.92,5.6,33.92s-3.14,3.07-5.76,0.45
					c-2.62-2.62-8.23-27.25-8.23-27.25L327.28,105.59z"/>
				<path class="st16" d="M329.92,153.59c-7.95,0.53-21.93-0.79-22.46-2.26c-1.83-5.09-0.54-6.66-2.06-14.45l3.84-10.8
					c0,0-0.64,12.03,2.91,15.19c3.54,3.16,14.52,6.11,16.24,8.75C329.21,151.3,329.76,152.57,329.92,153.59z"/>
				<path class="st10" d="M320.81,148.53c0,0,7.85-1.74,9.11-1.05c1.27,0.7,4.36,3.23,4.75,4.12c0.39,0.88-2.82-0.67-3.86-0.95
					c-0.68-0.18-2.45,0.44-3.33,0.73c-3.7,1.23-5.97,0.6-5.97,0.6L320.81,148.53z"/>
				<path class="st15" d="M315.57,104.56c0,0-10.53,0.65-14.18,5.73c-5.14,7.16-15.33,37.67-9.49,41.74
					c6.57,4.58,29.91,1.21,29.91,1.21s0.78-3.63-0.3-5.39c-1.08-1.76-18.64-4.6-19.45-5.41s10.14-15.8,10.14-18.23
					C312.19,121.77,315.57,104.56,315.57,104.56z"/>
				<path class="st10" d="M330.3,149.67c0,0,1.64,2.12,2.18,2.37c0.54,0.25,0.89,0.19,0.89,0.19l-1.11-1.99L330.3,149.67z"/>
				<path class="st10" d="M329.92,147.48l4.78,2.32c0,0-0.2,0.33-0.79,0.31c-0.59-0.03-2.07-0.57-2.07-0.57L329.92,147.48z"/>
			</g>
			<g>
				<polygon class="st11" points="370.73,152.95 320.81,152.93 320.81,154.04 370.29,154.05 				"/>
				<polygon class="st11" points="332.48,154.04 370.29,154.05 381.67,125.78 343.92,125.77 				"/>
				<path class="st9" d="M360.75,139.91c0.29-0.99-0.29-1.8-1.28-1.8c-0.99,0-2.03,0.81-2.32,1.8c-0.29,0.99,0.29,1.8,1.28,1.8
					C359.43,141.71,360.46,140.9,360.75,139.91z"/>
			</g>
		</g>
		<path class="st8" d="M334.38,321.59H267.2c-1.72,0-3.11-1.39-3.11-3.11v0c0-1.72,1.39-3.11,3.11-3.11h67.17
			c1.72,0,3.11,1.39,3.11,3.11v0C337.49,320.2,336.1,321.59,334.38,321.59z"/>
		<g>
			<path class="st5" d="M299.89,343h-33.68c-1.17,0-2.12-0.95-2.12-2.12l0,0c0-1.17,0.95-2.12,2.12-2.12h33.68
				c1.17,0,2.12,0.95,2.12,2.12l0,0C302.02,342.05,301.07,343,299.89,343z"/>
			<g>
				<path class="st5" d="M325.53,334.09h-59.32c-1.17,0-2.12-0.95-2.12-2.12l0,0c0-1.17,0.95-2.13,2.13-2.13h59.32
					c1.17,0,2.12,0.95,2.12,2.12v0C327.66,333.14,326.71,334.09,325.53,334.09z"/>
				<path class="st5" d="M390.69,334.09h-55.11c-1.17,0-2.12-0.95-2.12-2.12l0,0c0-1.17,0.95-2.12,2.12-2.12h55.11
					c1.17,0,2.12,0.95,2.12,2.12v0C392.81,333.14,391.86,334.09,390.69,334.09z"/>
				<path class="st5" d="M341.9,343h-33.68c-1.17,0-2.12-0.95-2.12-2.12l0,0c0-1.17,0.95-2.12,2.12-2.12h33.68
					c1.17,0,2.13,0.95,2.13,2.12l0,0C344.02,342.05,343.07,343,341.9,343z"/>
			</g>
		</g>
		<path class="st8" d="M417.49,321.59h-67.17c-1.72,0-3.11-1.39-3.11-3.11v0c0-1.72,1.39-3.11,3.11-3.11h67.17
			c1.72,0,3.11,1.39,3.11,3.11v0C420.61,320.2,419.21,321.59,417.49,321.59z"/>
		<path class="st8" d="M334.38,433.09H267.2c-1.72,0-3.11-1.39-3.11-3.11l0,0c0-1.72,1.39-3.11,3.11-3.11h67.17
			c1.72,0,3.11,1.39,3.11,3.11l0,0C337.49,431.7,336.1,433.09,334.38,433.09z"/>
		<g>
			<path class="st5" d="M299.89,454.5h-33.68c-1.17,0-2.12-0.95-2.12-2.12l0,0c0-1.17,0.95-2.12,2.12-2.12h33.68
				c1.17,0,2.12,0.95,2.12,2.12l0,0C302.02,453.55,301.07,454.5,299.89,454.5z"/>
			<g>
				<path class="st5" d="M325.53,445.59h-59.32c-1.17,0-2.12-0.95-2.12-2.12v0c0-1.17,0.95-2.12,2.12-2.12h59.32
					c1.17,0,2.12,0.95,2.12,2.12l0,0C327.66,444.64,326.71,445.59,325.53,445.59z"/>
				<path class="st5" d="M390.69,445.59h-55.11c-1.17,0-2.12-0.95-2.12-2.12v0c0-1.17,0.95-2.12,2.12-2.12h55.11
					c1.17,0,2.12,0.95,2.12,2.12l0,0C392.81,444.64,391.86,445.59,390.69,445.59z"/>
				<path class="st5" d="M341.9,454.5h-33.68c-1.17,0-2.12-0.95-2.12-2.12l0,0c0-1.17,0.95-2.12,2.12-2.12h33.68
					c1.17,0,2.13,0.95,2.13,2.12l0,0C344.02,453.55,343.07,454.5,341.9,454.5z"/>
			</g>
		</g>
		<path class="st8" d="M417.49,433.09h-67.17c-1.72,0-3.11-1.39-3.11-3.11v0c0-1.72,1.39-3.11,3.11-3.11h67.17
			c1.72,0,3.11,1.39,3.11,3.11l0,0C420.61,431.7,419.21,433.09,417.49,433.09z"/>
		<path class="st8" d="M334.38,377.34H267.2c-1.72,0-3.11-1.39-3.11-3.11l0,0c0-1.72,1.39-3.11,3.11-3.11h67.17
			c1.72,0,3.11,1.39,3.11,3.11l0,0C337.49,375.95,336.1,377.34,334.38,377.34z"/>
		<g>
			<path class="st5" d="M299.89,398.75h-33.68c-1.17,0-2.12-0.95-2.12-2.12l0,0c0-1.17,0.95-2.13,2.12-2.13h33.68
				c1.17,0,2.12,0.95,2.12,2.13l0,0C302.02,397.8,301.07,398.75,299.89,398.75z"/>
			<g>
				<path class="st5" d="M325.53,389.84h-59.32c-1.17,0-2.12-0.95-2.12-2.12v0c0-1.17,0.95-2.12,2.12-2.12h59.32
					c1.17,0,2.12,0.95,2.12,2.12l0,0C327.66,388.89,326.71,389.84,325.53,389.84z"/>
				<path class="st5" d="M390.69,389.84h-55.11c-1.17,0-2.12-0.95-2.12-2.12l0,0c0-1.17,0.95-2.12,2.12-2.12h55.11
					c1.17,0,2.12,0.95,2.12,2.12l0,0C392.81,388.89,391.86,389.84,390.69,389.84z"/>
				<path class="st5" d="M341.9,398.75h-33.68c-1.17,0-2.12-0.95-2.12-2.12l0,0c0-1.17,0.95-2.13,2.12-2.13h33.68
					c1.17,0,2.13,0.95,2.13,2.13l0,0C344.02,397.8,343.07,398.75,341.9,398.75z"/>
			</g>
		</g>
		<path class="st8" d="M417.49,377.34h-67.17c-1.72,0-3.11-1.39-3.11-3.11l0,0c0-1.72,1.39-3.11,3.11-3.11h67.17
			c1.72,0,3.11,1.39,3.11,3.11l0,0C420.61,375.95,419.21,377.34,417.49,377.34z"/>
		<g>
			<path class="st10" d="M226.34,347.35c0,0,0.77-1.73,1.27-2.55c0.5-0.82,2.63-3.22,2.99-2.68c0.36,0.54,1.81,4.2,1.04,5.23
				c-0.77,1.02,0.05,2.81-3.78,3.89L226.34,347.35z"/>
			<path class="st16" d="M183.76,336.42c0,0,19.61,16.37,27.26,14.86c5.98-1.19,15.16-4.33,15.16-4.33l1.84,4.69
				c0,0-8.23,11.16-16.81,11.24c-13.41,0.11-23.32-5.81-23.32-5.81L183.76,336.42z"/>
			<path class="st17" d="M149.37,509.1c0,0,0.57,9.18,2.35,9.32c0.24,0.02,9.01,0.02,9.01,0.02l11.2-0.06c0,0-0.07-2.7-3.35-3.27
				c-3.27-0.57-8.76-2.87-10.74-7.2C155.75,503.35,149.37,509.1,149.37,509.1z"/>
			<path class="st13" d="M148.72,509.74c0,0,3.41,1.14,6.06,1.14c2.97,0,5.66-0.81,5.66-0.81s0.64-6.2,4.17-19.86
				c1.85-7.16,4.49-16.37,8.25-27.81c10.39-31.62,13.55-50.11,13.84-51.87c0.02-0.09,0.02-0.14,0.02-0.14l-0.03-0.02l-31.95-14.03
				c0,0,3.95,43.58-1.09,60.3c-0.71,2.34-1.31,5.06-1.83,8.01C148.65,482.84,148.72,509.74,148.72,509.74z"/>
			<path class="st12" d="M164.62,490.21c1.85-7.16,4.49-16.37,8.25-27.81c10.39-31.62,13.55-50.11,13.84-51.87
				c0-0.05-0.01-0.1-0.01-0.15l-31.95-14.03c0,0,3.95,43.58-1.09,60.3C152.95,458.99,164.62,490.21,164.62,490.21z"/>
			<path class="st17" d="M174.32,509.1c0,0,0.57,9.18,2.35,9.32c0.24,0.02,9.01,0.02,9.01,0.02l11.2-0.06c0,0-0.07-2.7-3.35-3.27
				c-3.27-0.57-8.76-2.87-10.74-7.2C180.71,503.35,174.32,509.1,174.32,509.1z"/>
			<path class="st13" d="M192.43,397.38c0,0,0.42,28.24-4.47,62.91c-4.89,34.67-3.23,49.39-3.23,49.39s-3.36,1.09-4.71,1.2
				c-3.45,0.28-6.99-0.81-6.99-0.81s-6.99-34.68-4.99-52.04c2.01-17.35-9.58-59.55-9.58-59.55L192.43,397.38z"/>
			<path class="st10" d="M169.78,331.3l6.24,4.09l5.68-1.61c1.04-1.48,1.31-4.34,1.33-6.81c0.02-2.46-0.22-4.54-0.22-4.54
				l-8.41-3.71l-3.14-1.38c0.01,0.05,0.24,2.58,0.28,2.95C172.11,326.84,169.78,331.3,169.78,331.3z"/>
			<path class="st15" d="M192.57,405.23c-7.76,7.49-37.14,6.23-38.95-2.02c-1.81-8.26,1.97-70.29,15.23-74.18
				c2.75-0.81,17.46,3.95,17.46,3.95s2.31,6.04,3.82,13.73c0.29,1.5,1.15,17.35,1.79,32.18c0.3,6.94,0.55,13.65,0.68,18.57
				C192.73,402.04,192.74,405.07,192.57,405.23z"/>
			<path class="st18" d="M172.15,320.4c1.71,2.89,7.7,5.41,10.87,6.57c0.02-2.46-0.22-4.54-0.22-4.54l-8.41-3.71
				C172.53,318.7,171.39,319.11,172.15,320.4z"/>
			<path class="st10" d="M185.97,321.92c0,0-13.56,4.23-16.06-4.25s-5.94-13.65,2.61-16.71c8.55-3.06,11.19-0.32,12.72,2.31
				C186.77,305.9,189.43,320.61,185.97,321.92z"/>
			<path class="st19" d="M184.71,302.45c0,0-0.86,9.87-2.91,9.44c-2.04-0.43-4.29-1.35-3.99,1.63c0.3,2.98-1.98,8.08-4.93,8.06
				c-6.31-0.03-13.17-16.23-11.44-19.3C166.43,293.43,191.92,291.64,184.71,302.45z"/>
			<path class="st16" d="M182.72,329.24c-0.17-0.07-10.09-4.52-11.25-4.14c-1.16,0.38-2.61,3.93-2.61,3.93l17.46,3.95
				C186.32,332.97,184.95,330.18,182.72,329.24z"/>
			<g>
				<path class="st20" d="M244.45,377.28l-55.59,52.34c-1.09,1.03-2.46,1.35-3.05,0.73l-1.88-1.99c-0.59-0.63-0.18-1.98,0.91-3
					l55.59-52.34c1.09-1.03,2.46-1.35,3.05-0.73l1.88,1.99C245.95,374.9,245.54,376.25,244.45,377.28z"/>
				<path class="st5" d="M213.26,406.65l-24.39,22.97c-1.09,1.03-2.46,1.35-3.05,0.73l-1.88-1.99c-0.59-0.63-0.18-1.98,0.91-3
					l24.39-22.97L213.26,406.65z"/>
				<path class="st20" d="M231.68,357.52c2.13,7.03,6.09,13.62,11.82,19.02c17.53,16.49,45.1,15.64,61.59-1.88
					c16.27-17.3,15.67-44.37-1.2-60.93c-0.22-0.22-0.45-0.44-0.68-0.66c-17.52-16.49-45.1-15.65-61.58,1.88
					C230.53,326.73,227.28,343.07,231.68,357.52z M244.13,317.3c9.6-10.2,23.27-14.26,36.11-12.04c7.48,1.29,14.68,4.72,20.62,10.31
					c16.14,15.19,16.92,40.58,1.73,56.73c-5.59,5.94-12.56,9.8-19.95,11.55c-12.68,3-26.58-0.22-36.78-9.82
					C229.72,358.84,228.94,333.45,244.13,317.3z"/>
				<g class="st21">
					<path class="st22" d="M302.58,372.3c-5.59,5.94-12.56,9.8-19.95,11.55c-12.68,3-26.58-0.22-36.78-9.82
						c-16.14-15.19-16.92-40.58-1.73-56.73c9.6-10.2,23.27-14.26,36.11-12.04c7.48,1.29,14.68,4.72,20.62,10.31
						C317,330.76,317.77,356.16,302.58,372.3z"/>
				</g>
			</g>
			<path class="st16" d="M192.62,397.44c-30.63-21.83-28.08-50.95-28.08-50.95c11.2,6.31,22.3,20.28,27.4,32.39
				C192.23,385.81,192.49,392.52,192.62,397.44z"/>
			<g>
				<path class="st10" d="M222.85,387.5c2.16-0.5,3.61-2.13,3.91-2.42c0,0,0.92,0.06-0.15,2.03c-0.09,0.16-0.29,0.59-0.44,0.89
					c-0.06,0.12,0.02,0.26,0.16,0.27c1.25,0.09,2.5-0.4,4.9,0.1c0.33,0.07,0.43,0.86,0.41,1.2c-0.02,0.57,0.02,1.21-0.65,2.09
					c-0.39,0.51-1.47,1.06-3.87,2.03c-0.92,0.37-3.53,0.09-5.99-0.75l-1.96-0.91l0.61-3.64l0.49,0.1
					C221.06,388.65,222.03,387.7,222.85,387.5z"/>
				<path class="st15" d="M174.04,332.97c0,0-27.52,5.24,8.1,45.1c5.7,6.37,36.47,14.67,36.47,14.67s3.12-2.66,1.55-4.81
					c0,0-21.19-15.39-25.85-17.83c-2.1-1.1-8.14-24.56-11.56-30.21C179.33,334.24,174.04,332.97,174.04,332.97z"/>
			</g>
			<path class="st10" d="M227.08,347.84c0,0,0.9-1.72,1.08-2.63c0.18-0.91,1.31-3.55,1.78-4.02c0.19-0.19,0.8,0.05,0.88,0.86
				c0.03,0.35-0.14,0.98-0.44,1.74c-0.49,1.23-0.41,2.9-0.58,3.46C229.36,348.63,227.08,347.84,227.08,347.84z"/>
		</g>
		<g>
			<polygon class="st11" points="595.07,295.3 579.49,298.93 571.78,312.95 565.9,281 			"/>
			
				<rect x="581.05" y="295.04" transform="matrix(0.797 -0.6039 0.6039 0.797 -64.9409 413.3162)" class="st11" width="2.85" height="16.48"/>
		</g>
		<g>
			<g>
				<g>
					<path class="st23" d="M543.69,442.98c0,0,6.44-7.56,0.36-12.34c0,0-4.44-2.67-8.05-2.44c0,0,5.15,8.57,3.49,9.43
						c-1.65,0.86-5.05-9.96-5.05-9.96s-10.09-0.95-13.33,0.62c0,0,8.64,7.03,6.83,7.45c-1.81,0.43-11.15-6.47-11.15-6.47
						s-9.38,1.63-8.86,7.35c0.52,5.72,3.76,7.48,5.18,7.33c1.42-0.16,9.73-3.36,9.91-2.19s-4.81,4.99-8.31,5.18
						c0,0,6.64,7.28,11.03,5.16c4.39-2.12,4.76-5.46,7.49-6.72c2.74-1.26,5.08-1.27,3.95,0.02c-1.13,1.28-6.09,2.54-7.64,5.32
						c-1.56,2.78-2.96,4.65,1.59,3.95c4.55-0.7,11.93-4.05,12.25-7.87C543.69,442.98,543.69,442.98,543.69,442.98z"/>
					<g>
						<path class="st23" d="M512.55,436.77c0,0,25.49-1.06,31.14,6.21c0,0,1.26,3.73,5.1,7.11l0.6,1.63c0,0-4.43-4.64-6.01-4.92
							C543.38,446.79,545.82,437.75,512.55,436.77z"/>
						<path class="st23" d="M548.79,450.08c0,0,5.48,4.03,5.89,11.26l-0.99,0.09c0,0-1.77-7.47-4.94-10.38
							C545.58,448.14,548.79,450.08,548.79,450.08z"/>
					</g>
				</g>
				<g>
					<path class="st24" d="M577.87,423.02c0,0-10.3-5.73-5.53-13.56c0,0,3.82-4.81,7.93-6.06c0,0-2.16,11.66,0.04,11.93
						c2.2,0.27,1.47-13.17,1.47-13.17s10.82-5.25,15.07-4.85c0,0-6.68,11.4-4.49,11.12c2.19-0.28,9.7-11.82,9.7-11.82
						s11.1-2.09,12.91,4.48c1.8,6.58-1.07,9.88-2.71,10.29c-1.64,0.42-12.2,0.31-11.93,1.68c0.28,1.37,7.42,3.54,11.39,2.3
						c0,0-4.35,10.85-10.12,10.32c-5.76-0.53-7.56-4.09-11.12-4.35c-3.57-0.26-6.17,0.71-4.38,1.66c1.79,0.95,7.82,0.29,10.71,2.73
						c2.89,2.44,5.22,3.94-0.12,5.05c-5.35,1.11-14.95,0.46-16.88-3.65C577.87,423.02,577.87,423.02,577.87,423.02z"/>
					<g>
						<path class="st23" d="M609.9,403.17c0,0-28.77,9.42-32.03,19.85c0,0,0.15,4.66-2.71,10.02l0.01,2.06c0,0,2.99-7,4.64-7.97
							C579.8,427.13,573.33,418.1,609.9,403.17z"/>
						<path class="st23" d="M575.16,433.04c0,0-4.42,6.76-1.86,14.96l1.14-0.31c0,0-1.14-9.04,1.17-13.59
							C577.92,429.54,575.16,433.04,575.16,433.04z"/>
					</g>
				</g>
				<g>
					<path class="st24" d="M561.48,415.13c0,0,13.53-7.64,7.17-17.92c0,0-5.08-6.31-10.51-7.92c0,0,2.94,15.36,0.05,15.73
						c-2.89,0.37-2.04-17.35-2.04-17.35s-14.3-6.82-19.91-6.26c0,0,8.91,14.98,6.01,14.62c-2.89-0.35-12.88-15.51-12.88-15.51
						s-14.65-2.67-16.97,6.02c-2.32,8.68,1.49,13.01,3.66,13.55c2.17,0.54,16.09,0.31,15.73,2.12c-0.36,1.81-9.75,4.73-14.99,3.12
						c0,0,5.83,14.26,13.42,13.52c7.59-0.75,9.93-5.45,14.62-5.83c4.7-0.38,8.14,0.88,5.79,2.15c-2.35,1.27-10.3,0.45-14.09,3.69
						c-3.79,3.24-6.85,5.24,0.2,6.66c7.05,1.42,19.71,0.48,22.22-4.95C561.48,415.13,561.48,415.13,561.48,415.13z"/>
					<g>
						<path class="st23" d="M519.1,389.24c0,0,38,12.17,42.38,25.9c0,0-0.16,6.15,3.66,13.19l0.01,2.71c0,0-4.01-9.21-6.18-10.47
							C558.97,420.56,567.43,408.61,519.1,389.24z"/>
						<path class="st23" d="M565.14,428.32c0,0,5.88,8.87,2.58,19.7l-1.51-0.4c0,0,1.42-11.92-1.66-17.91
							S565.14,428.32,565.14,428.32z"/>
					</g>
				</g>
			</g>
			<g>
				<g>
					<g>
						<path class="st13" d="M670.03,519.12H531.08c-19.37-22.16-14.26-52.1,11.46-77.35c3.23-3.17,9.44-5.43,16.12-7.02
							c12.33-2.93,26.31-3.6,26.41-3.66c0.04-0.02,7.39-5.97,11.81-11.32c13.73-16.63,25.42-15.2,25.42-15.2
							c14-2.72,25.94-3.52,34.79,1.4c0,0,0,0,0,0.01c8.2,4.57,13.75,14.06,15.83,31.5c0.39,3.3,0.66,6.88,0.8,10.77
							c0.51,14.15,3.3,26.75,4.95,37.41c0,0,0,0,0,0C681.08,501.11,682.78,512.86,670.03,519.12z"/>
					</g>
					<path class="st12" d="M650.15,423.76c-8.49,4.63-9.43,19.87-22.73,23.8c-13.29,3.94-35.86,3.58-48.66,17.46
						c-12.35,13.4-25.97-20.69-20.1-30.27c12.33-2.93,26.31-3.6,26.41-3.66c0.04-0.02,7.39-5.97,11.81-11.32
						c13.73-16.63,25.42-15.2,25.42-15.2c14-2.72,25.94-3.52,34.79,1.4c0,0,0,0,0,0.01C666.84,416.06,658.64,419.14,650.15,423.76z"
						/>
					<g>
						<path class="st25" d="M558.22,489.66c0,0,2.45,6.49,1.94,8.9c-0.51,2.41,0.34,7.08-0.64,9.17c-0.98,2.09-2.73,5.13-1.04,5.9
							c0.64,0.29,8.09-5.52,8.51-7.23c0.42-1.71,0.74-6.75,2.16-9.49c1.42-2.74,0.22-4.94-1.85-5.94c-2.07-1-4.96-6.5-4.96-6.5
							L558.22,489.66z"/>
						<path class="st11" d="M598.01,428.15c0,0-40.66-2.51-45.89,2.88c-5.52,5.68,3.47,61.56,3.47,61.56s11.03,0.32,11.89-2.6
							c0,0-2.07-27.06-0.35-31.74c1.72-4.68,0.63-11.16,0.63-11.16s21.57,3.22,28.41,1.58
							C603.02,447.04,598.01,428.15,598.01,428.15z"/>
						<path class="st10" d="M607.86,398.31c0,0.03-5.99,13.98-8.91,15.47c-2.92,1.49-13.5,13.65-15.77,13.44
							c-2.27-0.21,2.34,2.49,2.34,2.49s18.81-9.18,19.89-9.71c1.08-0.53,6.74-9.86,7.51-14.59
							C613.69,400.67,607.86,398.31,607.86,398.31z"/>
						<path class="st25" d="M550.71,500.37c0,0-2.32,6.54-4.26,8.05c-1.94,1.51-4.31,5.63-6.41,6.59c-2.1,0.97-5.4,2.16-4.6,3.84
							c0.3,0.64,9.74,1,11.17-0.04c1.43-1.03,4.92-4.68,7.77-5.86c2.85-1.18,3.35-3.64,2.42-5.74c-0.94-2.1,0.4-8.17,0.4-8.17
							L550.71,500.37z"/>
						<path class="st19" d="M620.11,392.11c-0.87-1,21.15,1.47,24.08,12.72c0,0,16.91-13.33,1.4-24.56
							c-5.37-3.89-5.91-8.04-6.69-11.84c-0.78-3.8-6.14-14.72-15.43-9.29c0,0-4.25,0.02-6.93,2.35
							C610.41,366.78,603.74,400.45,620.11,392.11z"/>
						<path class="st26" d="M615.82,430.12c0,0-44.2,4.51-48.08,9.02c-3.88,4.51-19.13,63.19-19.13,63.19s4.51,2.51,8.61,0.16
							c0,0,11.69-19.91,16.86-26.16c5.17-6.25,7.1-25.54,7.96-25.74c0.85-0.2,28.55,3.86,38.09-3.47
							C629.66,439.8,615.82,430.12,615.82,430.12z"/>
						<path class="st25" d="M640.42,390c0,0-10.54-4.71-23.91-2.55c-2.73,0.44-5.19,1.34-7.15,4.56c-2.76,4.55-4.05,6.99-4.05,6.99
							s0.27,2.11,4.04,3.78c-1.03,3.77,0.94,10.35-0.87,12.91c-1.81,2.56-13.04,8.89-13.6,12.42c-1.02,6.47,19.2,18.2,25.23,16.94
							C637.47,441.44,649.23,394.96,640.42,390z"/>
						<path class="st19" d="M634.45,376.67c0,0,2.08-4.09,2.35-7.45c0.2-2.4-1.83-11.02-10.49-8.93c0,0-2.53,0.49-4.77,2.34
							c-1.78,1.47-4.27,4.51-0.48,11.84l1.04,2.5L634.45,376.67z"/>
						<g>
							<path class="st10" d="M622.59,390.47c-0.88,0.92-0.53,3.99,3.57,3.76c2.69-0.15,8.45-3.48,7.91-5.78
								c-0.26-1.09-2.33-3.91-2.81-10.39l-0.49,0.14l-8.21,2.31c0,0,0.4,2.61,0.6,5.08C623.33,387.66,622.95,390.08,622.59,390.47z"
								/>
							<path class="st27" d="M622.56,380.51c0,0,0.4,2.61,0.6,5.08c4.66-0.5,6.79-4.95,7.61-7.39L622.56,380.51z"/>
							<path class="st10" d="M622.38,384.3c0,0,10.74-2.71,8.95-9.37c-1.79-6.66-1.61-11.5-8.54-10.06
								c-6.93,1.45-7.58,4.35-7.52,6.71C615.33,373.96,619.54,384.84,622.38,384.3z"/>
							<path class="st19" d="M617.88,366.03c0,0,3.61,6.87,10.41,7.61c3.98,0.43,5.08,3.06,5.08,3.06s-1.2-7.5-3.2-12.09
								C630.17,364.6,619.09,361.71,617.88,366.03z"/>
							<path class="st19" d="M619.11,366.94c0,0-2.35,2.4-3.08,4.09c-1.07,2.51,1.02,7.79,1.89,8.93c0,0-5-8.48-3.33-12.15
								C616.36,363.91,619.11,366.94,619.11,366.94z"/>
						</g>
						<path class="st10" d="M586.37,428.82c0,0-2.14,2.27-2.4,2.39c-1.41,0.66-3.2,0.28-4.07,0.49c-0.86,0.22-0.71-0.32-0.08-0.76
							c0.64-0.44,2.2-0.27,1.56-0.43c-0.64-0.16-4.1-0.8-5.4-0.45c-2.06,0.55-3.69-0.1-3.82-0.31c-0.13-0.21,4.71-2.58,6.09-2.5
							c1.38,0.08,5.35-0.11,5.35-0.11L586.37,428.82z"/>
						<path class="st10" d="M644.06,394.18c0,0,13.33,30.09,9.63,34.51c-3.68,4.39-29.33-0.94-29.33-0.94l0.79-2.79
							c0,0,18.87-1.15,20.21-1.54c1.93-0.55-9.56-21.65-9.56-21.65L644.06,394.18z"/>
						<path class="st25" d="M639.09,389.51c0.32,0.01,4.3,1.31,7.17,6.98c2.81,5.56,3.84,8.26,3.84,8.26s-12.46,9.66-17.42,6.11
							C627.71,407.3,634.52,389.39,639.09,389.51z"/>
						<path class="st10" d="M627.35,424.82c0,0-2.14-1.39-3.01-2.15c-0.87-0.76-5.88-1.38-5.88-0.87c0,0.51,2.92,1.2,3.24,1.7
							c0.32,0.51,2.1,2.6,3.63,2.59S627.35,424.82,627.35,424.82z"/>
						<g>
							<path class="st28" d="M621.5,429.34l-5.75-0.82c-0.86-0.12-1.73-0.84-1.95-1.6l-3.17-11.23c-0.22-0.76,0.31-1.28,1.16-1.16
								l5.75,0.82c0.86,0.12,1.73,0.84,1.95,1.6l3.17,11.23C622.88,428.94,622.36,429.46,621.5,429.34z"/>
							<path class="st11" d="M620.31,429.17l-5.75-0.82c-0.86-0.12-1.73-0.84-1.95-1.6l-3.17-11.23c-0.22-0.76,0.31-1.28,1.16-1.16
								l5.75,0.82c0.86,0.12,1.73,0.84,1.95,1.6l3.17,11.23C621.69,428.77,621.16,429.29,620.31,429.17z"/>
							<path class="st28" d="M610.42,415.8c-0.09-0.32,0.13-0.53,0.48-0.48c0.36,0.05,0.72,0.35,0.81,0.67
								c0.09,0.32-0.13,0.53-0.48,0.48C610.87,416.41,610.51,416.11,610.42,415.8z"/>
						</g>
						<path class="st10" d="M624.36,427.75c0,0-3.89,0.05-4.86-0.18c-0.98-0.23-3.47-3.32-2.8-4.1c0.42-0.49,2.74,0.39,3.85,0.38
							c1.11,0,3.98-1.6,5.95,1.67C626.72,425.9,624.36,427.75,624.36,427.75z"/>
					</g>
					<path class="st13" d="M641.05,435.15c0,0-4.19,3.92-21.71,4.49c-17.52,0.56-40.36,19.93-40.58,25.39
						c-0.21,5.47,35.28,13.77,35.83,12.99c0.55-0.78,22.51-19.65,22.51-19.65L641.05,435.15z"/>
					<path class="st12" d="M678.68,485.67c-19.49-24.33-59.54,8.84-69.9,7.9c-9.53-0.86,18.58-34.12,53.44-39.07
						c14.09-2,10.72-16.56,10.71-17.01c0.39,3.3,0.66,6.88,0.8,10.77C674.23,462.41,677.02,475,678.68,485.67z"/>
				</g>
			</g>
		</g>
		<path class="st29" d="M729.61,520.59l-664.63-0.23c-0.45,0-0.81-0.36-0.81-0.81l0-0.41c0-0.45,0.36-0.81,0.81-0.81l664.63,0.23
			c0.45,0,0.81,0.36,0.81,0.81v0.42C730.42,520.23,730.05,520.59,729.61,520.59z"/>
		<g>
			<polygon class="st16" points="455.06,150.63 493.02,158.48 468.69,139.57 467.05,145.04 457.63,146.15 			"/>
			<polygon class="st25" points="493.02,158.48 462.17,140.06 431.03,136.54 			"/>
			<polygon class="st25" points="468.69,139.57 493.02,158.48 475.04,130.18 			"/>
		</g>
		<g>
			<polygon class="st16" points="216.51,257.46 178.55,265.32 202.89,246.41 204.53,251.88 213.95,252.99 			"/>
			<polygon class="st25" points="178.55,265.32 209.4,246.9 240.54,243.38 			"/>
			<polygon class="st25" points="202.89,246.41 178.55,265.32 196.54,237.01 			"/>
		</g>
		<g>
			<path class="st5" d="M278.71,268.43l1.11-1.32c1.01,0.87,2.01,1.37,3.32,1.37c1.14,0,1.86-0.53,1.86-1.35
				c0-0.75-0.42-1.16-2.37-1.62c-2.24-0.53-3.5-1.19-3.5-3.15c0-1.8,1.5-3.05,3.59-3.05c1.53,0,2.75,0.47,3.81,1.32l-0.99,1.4
				c-0.95-0.71-1.89-1.08-2.85-1.08c-1.08,0-1.71,0.56-1.71,1.28c0,0.81,0.48,1.17,2.49,1.65c2.22,0.54,3.38,1.34,3.38,3.11
				c0,1.97-1.55,3.14-3.75,3.14C281.49,270.11,279.97,269.56,278.71,268.43z"/>
			<path class="st5" d="M288.37,266c0-2.27,1.61-4.13,3.87-4.13c2.52,0,3.8,1.98,3.8,4.26c0,0.12-0.02,0.42-0.03,0.51h-5.82
				c0.2,1.29,1.11,2.01,2.28,2.01c0.89,0,1.52-0.33,2.15-0.95l1.07,0.95c-0.75,0.9-1.79,1.49-3.24,1.49
				C290.14,270.14,288.37,268.48,288.37,266z M294.24,265.45c-0.12-1.17-0.81-2.09-2.01-2.09c-1.11,0-1.89,0.86-2.06,2.09H294.24z"
				/>
			<path class="st5" d="M302.72,269.96v-0.98c-0.54,0.65-1.37,1.14-2.57,1.14c-1.5,0-2.82-0.86-2.82-2.48c0-1.76,1.37-2.6,3.21-2.6
				c0.96,0,1.58,0.14,2.19,0.33v-0.15c0-1.1-0.69-1.7-1.95-1.7c-0.89,0-1.55,0.2-2.27,0.49l-0.5-1.46c0.87-0.39,1.73-0.66,3.02-0.66
				c2.34,0,3.48,1.23,3.48,3.35v4.7H302.72z M302.76,266.65c-0.46-0.18-1.11-0.31-1.82-0.31c-1.14,0-1.82,0.47-1.82,1.26
				c0,0.75,0.68,1.17,1.53,1.17c1.2,0,2.1-0.68,2.1-1.67V266.65z"/>
			<path class="st5" d="M306.68,262.04h1.82v1.79c0.5-1.19,1.41-2,2.81-1.94v1.92h-0.1c-1.59,0-2.7,1.04-2.7,3.14v3.02h-1.82V262.04
				z"/>
			<path class="st5" d="M312.17,266.02c0-2.25,1.74-4.14,4.11-4.14c1.5,0,2.43,0.56,3.17,1.37l-1.13,1.22
				c-0.56-0.59-1.14-0.99-2.06-0.99c-1.32,0-2.28,1.14-2.28,2.55s0.98,2.55,2.37,2.55c0.86,0,1.49-0.41,2.06-0.99l1.1,1.08
				c-0.78,0.87-1.7,1.49-3.24,1.49C313.91,270.14,312.17,268.3,312.17,266.02z"/>
			<path class="st5" d="M321.17,259.01h1.82v4.26c0.51-0.75,1.25-1.4,2.48-1.4c1.79,0,2.82,1.2,2.82,3.05v5.04h-1.82v-4.5
				c0-1.23-0.62-1.94-1.7-1.94c-1.05,0-1.79,0.74-1.79,1.97v4.47h-1.82V259.01z"/>
			<path class="st5" d="M330.36,267.91h2v2.06h-2V267.91z"/>
			<path class="st5" d="M334.39,267.91h2v2.06h-2V267.91z"/>
			<path class="st5" d="M338.43,267.91h2v2.06h-2V267.91z"/>
			<path class="st5" d="M342.47,267.91h2v2.06h-2V267.91z"/>
		</g>
		<g>
			<path class="st3" d="M447.43,366.6c0-1.07,0.87-1.94,1.94-1.94c1.07,0,1.94,0.87,1.94,1.94c0,1.07-0.87,1.94-1.94,1.94
				C448.3,368.54,447.43,367.67,447.43,366.6z"/>
			<path class="st3" d="M537.79,367.12h-87.9c-0.29,0-0.52-0.23-0.52-0.52l0,0c0-0.29,0.23-0.52,0.52-0.52h87.9
				c0.29,0,0.52,0.23,0.52,0.52l0,0C538.32,366.89,538.08,367.12,537.79,367.12z"/>
		</g>
	</g>
</g>
</svg>
